<mxfile host="app.diagrams.net" agent="Mozilla/5.0 (Windows NT 10.0; Win64; x64) AppleWebKit/537.36 (KHTML, like Gecko) Chrome/135.0.0.0 Safari/537.36" version="26.2.14">
  <diagram name="Page-1" id="Wsji84-mpg7T-jFQcsbR">
    <mxGraphModel dx="3166" dy="1171" grid="1" gridSize="10" guides="1" tooltips="1" connect="1" arrows="1" fold="1" page="1" pageScale="1" pageWidth="850" pageHeight="1100" math="0" shadow="0">
      <root>
        <mxCell id="0" />
        <mxCell id="1" parent="0" />
        <mxCell id="ouIth-kbRJxXcluil7vW-3" value="" style="edgeStyle=orthogonalEdgeStyle;rounded=0;orthogonalLoop=1;jettySize=auto;html=1;" edge="1" parent="1" source="ouIth-kbRJxXcluil7vW-1" target="ouIth-kbRJxXcluil7vW-2">
          <mxGeometry relative="1" as="geometry" />
        </mxCell>
        <mxCell id="ouIth-kbRJxXcluil7vW-1" value="Sign In" style="rounded=0;whiteSpace=wrap;html=1;" vertex="1" parent="1">
          <mxGeometry x="365" y="30" width="120" height="60" as="geometry" />
        </mxCell>
        <mxCell id="ouIth-kbRJxXcluil7vW-5" value="" style="edgeStyle=orthogonalEdgeStyle;rounded=0;orthogonalLoop=1;jettySize=auto;html=1;" edge="1" parent="1" source="ouIth-kbRJxXcluil7vW-6" target="ouIth-kbRJxXcluil7vW-4">
          <mxGeometry relative="1" as="geometry" />
        </mxCell>
        <mxCell id="ouIth-kbRJxXcluil7vW-10" value="" style="edgeStyle=orthogonalEdgeStyle;rounded=0;orthogonalLoop=1;jettySize=auto;html=1;" edge="1" parent="1" source="ouIth-kbRJxXcluil7vW-11" target="ouIth-kbRJxXcluil7vW-9">
          <mxGeometry relative="1" as="geometry" />
        </mxCell>
        <mxCell id="ouIth-kbRJxXcluil7vW-2" value="singn count" style="rhombus;whiteSpace=wrap;html=1;rounded=0;" vertex="1" parent="1">
          <mxGeometry x="385" y="160" width="80" height="80" as="geometry" />
        </mxCell>
        <mxCell id="ouIth-kbRJxXcluil7vW-13" style="edgeStyle=orthogonalEdgeStyle;rounded=0;orthogonalLoop=1;jettySize=auto;html=1;entryX=0;entryY=0.5;entryDx=0;entryDy=0;" edge="1" parent="1" source="ouIth-kbRJxXcluil7vW-4" target="ouIth-kbRJxXcluil7vW-9">
          <mxGeometry relative="1" as="geometry" />
        </mxCell>
        <mxCell id="ouIth-kbRJxXcluil7vW-4" value="Chnage the password" style="ellipse;whiteSpace=wrap;html=1;rounded=0;" vertex="1" parent="1">
          <mxGeometry x="385" y="380" width="80" height="80" as="geometry" />
        </mxCell>
        <mxCell id="ouIth-kbRJxXcluil7vW-7" value="" style="edgeStyle=orthogonalEdgeStyle;rounded=0;orthogonalLoop=1;jettySize=auto;html=1;" edge="1" parent="1" source="ouIth-kbRJxXcluil7vW-2" target="ouIth-kbRJxXcluil7vW-6">
          <mxGeometry relative="1" as="geometry">
            <mxPoint x="425" y="240" as="sourcePoint" />
            <mxPoint x="425" y="380" as="targetPoint" />
          </mxGeometry>
        </mxCell>
        <mxCell id="ouIth-kbRJxXcluil7vW-6" value="count == 0&lt;div&gt;or count%25 ==0&lt;/div&gt;" style="text;html=1;align=center;verticalAlign=middle;whiteSpace=wrap;rounded=0;" vertex="1" parent="1">
          <mxGeometry x="395" y="300" width="60" height="30" as="geometry" />
        </mxCell>
        <mxCell id="ouIth-kbRJxXcluil7vW-15" value="" style="edgeStyle=orthogonalEdgeStyle;rounded=0;orthogonalLoop=1;jettySize=auto;html=1;" edge="1" parent="1" source="ouIth-kbRJxXcluil7vW-9" target="ouIth-kbRJxXcluil7vW-14">
          <mxGeometry relative="1" as="geometry" />
        </mxCell>
        <mxCell id="ouIth-kbRJxXcluil7vW-9" value="PWD validation" style="whiteSpace=wrap;html=1;rounded=0;" vertex="1" parent="1">
          <mxGeometry x="820" y="390" width="120" height="60" as="geometry" />
        </mxCell>
        <mxCell id="ouIth-kbRJxXcluil7vW-12" value="" style="edgeStyle=orthogonalEdgeStyle;rounded=0;orthogonalLoop=1;jettySize=auto;html=1;" edge="1" parent="1" source="ouIth-kbRJxXcluil7vW-2" target="ouIth-kbRJxXcluil7vW-11">
          <mxGeometry relative="1" as="geometry">
            <mxPoint x="465" y="200" as="sourcePoint" />
            <mxPoint x="880" y="370" as="targetPoint" />
          </mxGeometry>
        </mxCell>
        <mxCell id="ouIth-kbRJxXcluil7vW-11" value="False" style="text;html=1;align=center;verticalAlign=middle;whiteSpace=wrap;rounded=0;" vertex="1" parent="1">
          <mxGeometry x="670" y="185" width="60" height="30" as="geometry" />
        </mxCell>
        <mxCell id="ouIth-kbRJxXcluil7vW-17" value="" style="edgeStyle=orthogonalEdgeStyle;rounded=0;orthogonalLoop=1;jettySize=auto;html=1;" edge="1" parent="1" source="ouIth-kbRJxXcluil7vW-22" target="ouIth-kbRJxXcluil7vW-16">
          <mxGeometry relative="1" as="geometry" />
        </mxCell>
        <mxCell id="ouIth-kbRJxXcluil7vW-19" value="" style="edgeStyle=orthogonalEdgeStyle;rounded=0;orthogonalLoop=1;jettySize=auto;html=1;" edge="1" parent="1" source="ouIth-kbRJxXcluil7vW-20" target="ouIth-kbRJxXcluil7vW-18">
          <mxGeometry relative="1" as="geometry" />
        </mxCell>
        <mxCell id="ouIth-kbRJxXcluil7vW-14" value="Success" style="rhombus;whiteSpace=wrap;html=1;rounded=0;" vertex="1" parent="1">
          <mxGeometry x="840" y="520" width="80" height="80" as="geometry" />
        </mxCell>
        <mxCell id="ouIth-kbRJxXcluil7vW-16" value="Menu Prompt" style="ellipse;whiteSpace=wrap;html=1;rounded=0;" vertex="1" parent="1">
          <mxGeometry x="840" y="810" width="80" height="80" as="geometry" />
        </mxCell>
        <mxCell id="ouIth-kbRJxXcluil7vW-18" value="Account blocked for 2 hours after 3 tries" style="whiteSpace=wrap;html=1;rounded=0;" vertex="1" parent="1">
          <mxGeometry x="1140" y="820" width="120" height="60" as="geometry" />
        </mxCell>
        <mxCell id="ouIth-kbRJxXcluil7vW-21" value="" style="edgeStyle=orthogonalEdgeStyle;rounded=0;orthogonalLoop=1;jettySize=auto;html=1;" edge="1" parent="1" source="ouIth-kbRJxXcluil7vW-14" target="ouIth-kbRJxXcluil7vW-20">
          <mxGeometry relative="1" as="geometry">
            <mxPoint x="920" y="560" as="sourcePoint" />
            <mxPoint x="1200" y="820" as="targetPoint" />
          </mxGeometry>
        </mxCell>
        <mxCell id="ouIth-kbRJxXcluil7vW-20" value="False" style="text;html=1;align=center;verticalAlign=middle;whiteSpace=wrap;rounded=0;" vertex="1" parent="1">
          <mxGeometry x="1170" y="700" width="60" height="30" as="geometry" />
        </mxCell>
        <mxCell id="ouIth-kbRJxXcluil7vW-23" value="" style="edgeStyle=orthogonalEdgeStyle;rounded=0;orthogonalLoop=1;jettySize=auto;html=1;" edge="1" parent="1" source="ouIth-kbRJxXcluil7vW-14" target="ouIth-kbRJxXcluil7vW-22">
          <mxGeometry relative="1" as="geometry">
            <mxPoint x="880" y="600" as="sourcePoint" />
            <mxPoint x="880" y="810" as="targetPoint" />
          </mxGeometry>
        </mxCell>
        <mxCell id="ouIth-kbRJxXcluil7vW-22" value="True" style="text;html=1;align=center;verticalAlign=middle;whiteSpace=wrap;rounded=0;" vertex="1" parent="1">
          <mxGeometry x="850" y="680" width="60" height="30" as="geometry" />
        </mxCell>
        <mxCell id="ouIth-kbRJxXcluil7vW-25" style="edgeStyle=orthogonalEdgeStyle;rounded=0;orthogonalLoop=1;jettySize=auto;html=1;" edge="1" parent="1" source="ouIth-kbRJxXcluil7vW-24" target="ouIth-kbRJxXcluil7vW-4">
          <mxGeometry relative="1" as="geometry" />
        </mxCell>
        <mxCell id="ouIth-kbRJxXcluil7vW-24" value="new pwd should follow pwc policy" style="rounded=0;whiteSpace=wrap;html=1;" vertex="1" parent="1">
          <mxGeometry x="-30" y="390" width="120" height="60" as="geometry" />
        </mxCell>
      </root>
    </mxGraphModel>
  </diagram>
</mxfile>
